<?xml version="1.0" encoding="utf-8"?>
<!-- Generator: Adobe Illustrator 22.0.1, SVG Export Plug-In . SVG Version: 6.00 Build 0)  -->
<svg version="1.1" id="Layer_1" xmlns="http://www.w3.org/2000/svg" xmlns:xlink="http://www.w3.org/1999/xlink" x="0px" y="0px"
	 viewBox="0 0 75.5 18.1" style="enable-background:new 0 0 75.5 18.1;" xml:space="preserve">
<style type="text/css">
	.st0{fill:#00FFFF;}
	.st1{fill:#1571E6;}
	.st2{enable-background:new    ;}
</style>
<title>awesome-logo</title>
<desc>Created with Sketch.</desc>
<rect x="0.1" y="0.2" class="st0" width="18" height="4.1"/>
<rect x="20.4" y="0.2" class="st1" width="12.8" height="4.1"/>
<rect x="15.1" y="14" class="st0" width="18" height="4.1"/>
<rect x="0.1" y="14" class="st1" width="12.8" height="4.1"/>
<rect x="0" y="7.4" class="st0" width="8.3" height="4.1"/>
<rect x="10.5" y="7.4" class="st1" width="2.7" height="4.1"/>
<rect x="15.4" y="7.3" class="st0" width="18" height="4.1"/>
<g class="st2">
	<path class="st1" d="M37.8,8.9H36V5.7h1.8V5.2c0-1.7,0.2-2.8,0.5-3.5c0.3-0.7,0.9-1.1,1.7-1.3s2.3-0.3,4.4-0.3v2.8
		c-0.8,0-1.4,0-1.7,0.1c-0.3,0.1-0.5,0.2-0.6,0.4C42.1,3.6,42,4,42,4.6v1.2h2.4v3.1H42v9.3h-4.2V8.9z M46.1,18.2V0.1h4.2v18.1H46.1z
		"/>
	<path class="st1" d="M62.6,12.9h-6.3c0,0.8,0,1.3,0.1,1.6c0.1,0.3,0.3,0.5,0.6,0.6s0.9,0.1,1.8,0.1c0.6,0,1.7,0,3.3-0.1v2.8
		c-0.5,0.1-1.1,0.2-1.9,0.3c-0.8,0.1-1.6,0.1-2.4,0.1c-1.8,0-3.1-0.2-3.9-0.6c-0.8-0.4-1.3-1-1.5-1.9c-0.2-0.8-0.3-2.1-0.3-3.9
		c0-1.7,0.1-3,0.3-3.9c0.2-0.9,0.7-1.5,1.4-1.9s1.9-0.6,3.6-0.6c1.6,0,2.8,0.2,3.5,0.6c0.7,0.4,1.1,1,1.3,1.8c0.2,0.8,0.2,2.1,0.2,4
		V12.9z M56.7,8.6c-0.2,0.1-0.3,0.3-0.3,0.6c-0.1,0.3-0.1,0.8-0.1,1.6h2.5c0-0.8,0-1.3-0.1-1.6c-0.1-0.3-0.2-0.5-0.3-0.6
		c-0.2-0.1-0.4-0.1-0.8-0.1C57.2,8.5,56.9,8.5,56.7,8.6z"/>
	<path class="st1" d="M71.1,18.2l-1.7-3.6h-0.2l-1.7,3.6h-4.2l3.4-6.3l-3.3-6.1h4.4l1.6,3.4h0.2l1.5-3.4h4.2l-3.3,6.1l3.4,6.3H71.1z
		"/>
</g>
</svg>
